<?xml version="1.0" standalone="no"?><!DOCTYPE svg PUBLIC "-//W3C//DTD SVG 1.1//EN" "http://www.w3.org/Graphics/SVG/1.1/DTD/svg11.dtd"><svg t="1660098854143" class="icon" viewBox="0 0 1024 1024" version="1.1" xmlns="http://www.w3.org/2000/svg" p-id="6866" xmlns:xlink="http://www.w3.org/1999/xlink" width="200" height="200"><defs><style type="text/css">@font-face { font-family: feedback-iconfont; src: url("//at.alicdn.com/t/font_1031158_u69w8yhxdu.woff2?t=1630033759944") format("woff2"), url("//at.alicdn.com/t/font_1031158_u69w8yhxdu.woff?t=1630033759944") format("woff"), url("//at.alicdn.com/t/font_1031158_u69w8yhxdu.ttf?t=1630033759944") format("truetype"); }
</style></defs><path d="M512 512m-512 0a512 512 0 1 0 1024 0 512 512 0 1 0-1024 0Z" fill="#67EBB2" opacity=".15" p-id="6867"></path><path d="M512 814.545455a302.545455 302.545455 0 0 1-213.934545-516.48 302.545455 302.545455 0 1 1 427.86909 427.86909A300.555636 300.555636 0 0 1 512 814.545455z m-124.148364-328.052364a36.072727 36.072727 0 0 0-25.6 61.486545l92.997819 93.730909a29.917091 29.917091 0 0 0 42.46109 0l165.853091-166.74909a29.928727 29.928727 0 0 0-40.226909-44.218182l-127.418182 104.808727a29.905455 29.905455 0 0 1-38.597818-0.488727l-45.905454-39.761455a36.002909 36.002909 0 0 0-23.563637-8.808727z" fill="#20D76D" p-id="6868"></path></svg>